<?xml version="1.0" encoding="iso-8859-1"?>
<!-- Generator: Adobe Illustrator 18.0.0, SVG Export Plug-In . SVG Version: 6.00 Build 0)  -->
<!DOCTYPE svg PUBLIC "-//W3C//DTD SVG 1.1//EN" "http://www.w3.org/Graphics/SVG/1.1/DTD/svg11.dtd">
<svg version="1.1" id="Layer_3" xmlns="http://www.w3.org/2000/svg" xmlns:xlink="http://www.w3.org/1999/xlink" x="0px" y="0px"
	 width="172.7px" height="189.1px" viewBox="0 0 172.7 189.1" enable-background="new 0 0 172.7 189.1" xml:space="preserve">
<path fill="none" stroke="#000000" stroke-width="9" stroke-linecap="round" stroke-miterlimit="10" d="M72.7,180.2
	c-36.6-10.3-63.5-44-63.5-84C9.2,48,48.3,9,96.4,9c27.4,0,51.8,12.6,67.8,32.3"/>
<path fill="none" stroke="#000000" stroke-width="4.1407" stroke-linecap="round" stroke-miterlimit="10" d="M85.4,127.3h-6.1
	c-8.8,0-16-7.2-16-16V71.9c0-8.8,7.2-16,16-16h6.1c8.8,0,16,7.2,16,16v39.4C101.4,120.1,94.2,127.3,85.4,127.3z"/>
<line fill="none" stroke="#000000" stroke-width="4.1407" stroke-linecap="round" stroke-miterlimit="10" x1="63.3" y1="108.7" x2="101.4" y2="108.7"/>
<line fill="none" stroke="#000000" stroke-width="3.5227" stroke-linecap="round" stroke-miterlimit="10" x1="65" y1="94.6" x2="78.8" y2="94.6"/>
<line fill="none" stroke="#000000" stroke-width="3.5227" stroke-linecap="round" stroke-miterlimit="10" x1="65" y1="83.6" x2="78.8" y2="83.6"/>
<line fill="none" stroke="#000000" stroke-width="3.5227" stroke-linecap="round" stroke-miterlimit="10" x1="65" y1="72.6" x2="78.8" y2="72.6"/>
<line fill="none" stroke="#000000" stroke-width="3.5227" stroke-linecap="round" stroke-miterlimit="10" x1="85.9" y1="94.6" x2="99.7" y2="94.6"/>
<line fill="none" stroke="#000000" stroke-width="3.5227" stroke-linecap="round" stroke-miterlimit="10" x1="85.9" y1="83.6" x2="99.7" y2="83.6"/>
<line fill="none" stroke="#000000" stroke-width="3.5227" stroke-linecap="round" stroke-miterlimit="10" x1="85.9" y1="72.6" x2="99.7" y2="72.6"/>
<path fill="none" stroke="#000000" stroke-width="3.5227" stroke-linecap="round" stroke-miterlimit="10" d="M114.4,108.7
	c0,17.7-14.4,32.1-32.1,32.1s-32.1-14.4-32.1-32.1"/>
<line fill="none" stroke="#000000" stroke-width="3.5227" stroke-linecap="round" stroke-miterlimit="10" x1="82.3" y1="140.8" x2="82.3" y2="151.1"/>
<path fill="none" stroke="#000000" stroke-width="4.1407" stroke-linecap="round" stroke-miterlimit="10" d="M142.8,102
	c-7.3-7.5-7-19.5,0.5-26.8"/>
<path fill="none" stroke="#000000" stroke-width="4.1407" stroke-linecap="round" stroke-miterlimit="10" d="M132.1,101.8
	c-7.3-7.5-7-19.5,0.5-26.8"/>
</svg>
