<?xml version="1.0" encoding="utf-8"?>
<!-- Generator: Adobe Illustrator 18.1.1, SVG Export Plug-In . SVG Version: 6.00 Build 0)  -->
<!DOCTYPE svg PUBLIC "-//W3C//DTD SVG 1.1//EN" "http://www.w3.org/Graphics/SVG/1.1/DTD/svg11.dtd">
<svg version="1.1" id="Layer_3" xmlns="http://www.w3.org/2000/svg" xmlns:xlink="http://www.w3.org/1999/xlink" x="0px" y="0px"
	 width="172.7px" height="189.1px" viewBox="-219 302.9 172.7 189.1" enable-background="new -219 302.9 172.7 189.1"
	 xml:space="preserve">
<path fill="none" stroke="#F3F3F7" stroke-width="9" stroke-linecap="round" stroke-miterlimit="10" d="M-146.3,483.1
	c-36.6-10.3-63.5-44-63.5-84c0-48.2,39.1-87.2,87.2-87.2c27.4,0,51.8,12.6,67.8,32.3"/>
<path fill="none" stroke="#000000" stroke-width="4.1407" stroke-linecap="round" stroke-miterlimit="10" d="M-133.6,430.2h-6.1
	c-8.8,0-16-7.2-16-16v-39.4c0-8.8,7.2-16,16-16h6.1c8.8,0,16,7.2,16,16v39.4C-117.6,423-124.8,430.2-133.6,430.2z"/>
<line fill="none" stroke="#000000" stroke-width="4.1407" stroke-linecap="round" stroke-miterlimit="10" x1="-155.7" y1="411.6" x2="-117.6" y2="411.6"/>
<line fill="none" stroke="#000000" stroke-width="3.5227" stroke-linecap="round" stroke-miterlimit="10" x1="-154" y1="397.5" x2="-140.2" y2="397.5"/>
<line fill="none" stroke="#000000" stroke-width="3.5227" stroke-linecap="round" stroke-miterlimit="10" x1="-154" y1="386.5" x2="-140.2" y2="386.5"/>
<line fill="none" stroke="#000000" stroke-width="3.5227" stroke-linecap="round" stroke-miterlimit="10" x1="-154" y1="375.5" x2="-140.2" y2="375.5"/>
<line fill="none" stroke="#000000" stroke-width="3.5227" stroke-linecap="round" stroke-miterlimit="10" x1="-133.1" y1="397.5" x2="-119.3" y2="397.5"/>
<line fill="none" stroke="#000000" stroke-width="3.5227" stroke-linecap="round" stroke-miterlimit="10" x1="-133.1" y1="386.5" x2="-119.3" y2="386.5"/>
<line fill="none" stroke="#000000" stroke-width="3.5227" stroke-linecap="round" stroke-miterlimit="10" x1="-133.1" y1="375.5" x2="-119.3" y2="375.5"/>
<path fill="none" stroke="#000000" stroke-width="3.5227" stroke-linecap="round" stroke-miterlimit="10" d="M-104.6,411.6
	c0,17.7-14.4,32.1-32.1,32.1s-32.1-14.4-32.1-32.1"/>
<line fill="none" stroke="#000000" stroke-width="3.5227" stroke-linecap="round" stroke-miterlimit="10" x1="-136.7" y1="443.7" x2="-136.7" y2="454"/>
<path fill="none" stroke="#000000" stroke-width="4.1407" stroke-linecap="round" stroke-miterlimit="10" d="M-76.2,404.9
	c-7.3-7.5-7-19.5,0.5-26.8"/>
<path fill="none" stroke="#000000" stroke-width="4.1407" stroke-linecap="round" stroke-miterlimit="10" d="M-86.9,404.7
	c-7.3-7.5-7-19.5,0.5-26.8"/>
</svg>
