<?xml version="1.0" encoding="utf-8"?>
<!-- Generator: Adobe Illustrator 18.0.0, SVG Export Plug-In . SVG Version: 6.00 Build 0)  -->
<!DOCTYPE svg PUBLIC "-//W3C//DTD SVG 1.1//EN" "http://www.w3.org/Graphics/SVG/1.1/DTD/svg11.dtd">
<svg version="1.1" id="Layer_1" xmlns="http://www.w3.org/2000/svg" xmlns:xlink="http://www.w3.org/1999/xlink" x="0px" y="0px"
	 width="143.5px" height="168px" viewBox="0 0 143.5 168" enable-background="new 0 0 143.5 168" xml:space="preserve">
<g>
	<path fill="none" stroke="#2A2A2A" stroke-width="3" stroke-miterlimit="10" d="M82.2,77.7L64.7,60.2l58-58l17.5,17.5L82.2,77.7z
		 M127.7,7.3l-58,58 M135.2,14.8l-58,58 M64.7,60.2l-1.3,1.3V79h17.5l1.6-1.5"/>
	<polyline fill="#2A2A2A" points="70.2,79 63.3,79 63.3,72.3 	"/>
</g>
<path fill="none" stroke="#2A2A2A" stroke-width="3" stroke-miterlimit="10" d="M70.3,128.9l24.8,28.6c2.4,2.4,3.9,4.9,1.9,6.9h0
	c-2,2-4.5,0.5-6.9-1.9l-28.6-24.8l0,0c-12.5,8.2-31,3.5-45.1-10.6C0.8,111.6-2.2,89.3,9.8,77.3s34.3-9,49.9,6.5
	C73.7,97.9,78.5,116.4,70.3,128.9z"/>
<line fill="none" stroke="#2A2A2A" stroke-width="3" stroke-miterlimit="10" x1="30.2" y1="87.8" x2="30.2" y2="114.6"/>
<line fill="none" stroke="#2A2A2A" stroke-width="3" stroke-miterlimit="10" x1="37" y1="94.5" x2="37" y2="104.2"/>
<line fill="none" stroke="#2A2A2A" stroke-width="3" stroke-miterlimit="10" x1="37" y1="107.9" x2="37" y2="112.4"/>
<line fill="none" stroke="#2A2A2A" stroke-width="3" stroke-miterlimit="10" x1="43.5" y1="91.9" x2="43.5" y2="96.4"/>
<path fill="none" stroke="#2A2A2A" stroke-width="3" stroke-miterlimit="10" d="M63.6,125.3c7.8-11.5,0.8-27.3-8.3-36.4
	c-13-13-31-16.1-40.3-6.9c-9.2,9.2-6.1,27.3,6.9,40.3c9.3,9.3,23.5,17.4,36.1,9.1C59.1,130.6,62.8,126.4,63.6,125.3z"/>
</svg>
