<?xml version="1.0" encoding="utf-8"?>
<!-- Generator: Adobe Illustrator 18.1.1, SVG Export Plug-In . SVG Version: 6.00 Build 0)  -->
<!DOCTYPE svg PUBLIC "-//W3C//DTD SVG 1.1//EN" "http://www.w3.org/Graphics/SVG/1.1/DTD/svg11.dtd">
<svg version="1.1" id="Layer_2" xmlns="http://www.w3.org/2000/svg" xmlns:xlink="http://www.w3.org/1999/xlink" x="0px" y="0px"
	 width="172.7px" height="189.1px" viewBox="-219 302.9 172.7 189.1" enable-background="new -219 302.9 172.7 189.1"
	 xml:space="preserve">
<path fill="none" stroke="#F3F3F7" stroke-width="9" stroke-linecap="round" stroke-miterlimit="10" d="M-146.3,483.1
	c-36.6-10.3-63.5-44-63.5-84c0-48.2,39.1-87.2,87.2-87.2c27.4,0,51.8,12.6,67.8,32.3"/>
<g>
	<path fill="none" stroke="#000000" stroke-width="4.1407" stroke-miterlimit="10" d="M-133.1,372.2l-4-4
		c-6.4-6.4-16.1-7.3-21.5-1.9l-2.6,2.6c-5.4,5.4-4.6,15.1,1.9,21.5l59.8,59.8c6.4,6.4,16.1,7.3,21.5,1.9l2.6-2.6
		c5.4-5.4,4.6-15.1-1.9-21.5L-133.1,372.2"/>
	<path fill="none" stroke="#000000" stroke-width="3.1055" stroke-linecap="round" stroke-miterlimit="10" d="M-129.9,367.1
		l-3.1-2.8c-8.4-8.2-19.8-6.4-28.4,4.9"/>
	<path fill="none" stroke="#000000" stroke-width="3.1055" stroke-linecap="round" stroke-miterlimit="10" d="M-123.5,371.3"/>
	<path fill="none" stroke="#000000" stroke-width="3.1055" stroke-linecap="round" stroke-miterlimit="10" d="M-77.4,451.5
		c11.5-10,13.4-19.3,3.7-27.9l-44.9-44.9"/>
	<path fill="none" stroke="#000000" stroke-width="3.1055" stroke-linecap="round" stroke-miterlimit="10" d="M-137.1,367.1h79.5
		c0,0-16.7,23.5-71.8,8.9"/>
	
		<line fill="none" stroke="#000000" stroke-width="3.1055" stroke-linecap="round" stroke-miterlimit="10" x1="-98.6" y1="372.4" x2="-85.7" y2="372.4"/>
	<g>
		
			<line fill="none" stroke="#000000" stroke-width="4.1407" stroke-miterlimit="10" x1="-141.8" y1="385.5" x2="-132.3" y2="394.9"/>
		
			<line fill="none" stroke="#000000" stroke-width="4.1407" stroke-miterlimit="10" x1="-132.3" y1="385.5" x2="-141.8" y2="394.9"/>
	</g>
</g>
<path fill="none" stroke="#000000" stroke-width="3.1055" stroke-linecap="round" stroke-miterlimit="10" d="M-143,368"/>
</svg>
