<?xml version="1.0" encoding="iso-8859-1"?>
<!-- Generator: Adobe Illustrator 18.0.0, SVG Export Plug-In . SVG Version: 6.00 Build 0)  -->
<!DOCTYPE svg PUBLIC "-//W3C//DTD SVG 1.1//EN" "http://www.w3.org/Graphics/SVG/1.1/DTD/svg11.dtd">
<svg version="1.1" id="Layer_1" xmlns="http://www.w3.org/2000/svg" xmlns:xlink="http://www.w3.org/1999/xlink" x="0px" y="0px"
	 width="172.7px" height="189.1px" viewBox="0 0 172.7 189.1" enable-background="new 0 0 172.7 189.1" xml:space="preserve">
<path fill="none" stroke="#000000" stroke-width="9" stroke-linecap="round" stroke-miterlimit="10" d="M72.7,180.2
	c-36.6-10.3-63.5-44-63.5-84C9.2,48,48.3,9,96.4,9c27.4,0,51.8,12.6,67.8,32.3"/>
<path fill="none" stroke="#000000" stroke-width="3.1055" stroke-linecap="round" stroke-miterlimit="10" d="M76,65.1"/>
<g>
	<circle fill="none" stroke="#000000" stroke-width="4.1407" stroke-miterlimit="10" cx="97.5" cy="96.2" r="51.8"/>
	<ellipse fill="none" stroke="#000000" stroke-width="4.1407" stroke-miterlimit="10" cx="97.5" cy="96.2" rx="14.5" ry="14.4"/>
	<path fill="none" stroke="#000000" stroke-width="3.1055" stroke-linecap="round" stroke-miterlimit="10" d="M98.4,141.5
		c-25,0-45.2-20-45.2-44.7"/>
	<path fill="none" stroke="#000000" stroke-width="3.1055" stroke-linecap="round" stroke-miterlimit="10" d="M97.9,135.1
		c-21,0-38.1-16.9-38.1-37.7"/>
	<path fill="none" stroke="#000000" stroke-width="3.1055" stroke-linecap="round" stroke-miterlimit="10" d="M97.9,52.8
		c24.7,0,44.7,20.2,44.7,45.2"/>
	<path fill="none" stroke="#000000" stroke-width="3.1055" stroke-linecap="round" stroke-miterlimit="10" d="M98.4,59.4
		c20.8,0,37.7,17.1,37.7,38.1"/>
	<circle cx="97.5" cy="96.2" r="2.4"/>
</g>
<path fill="none" stroke="#000000" stroke-width="4.1407" stroke-linecap="round" stroke-miterlimit="10" d="M162,62.9
	c0,0,8.7,26.1-8.2,39.3s-24,18.5-24,18.5"/>
<path d="M133.1,112.4L127,117c-1.8,1.3-2.1,3.8-0.8,5.5l0.7,0.9c1.3,1.8,3.8,2.1,5.5,0.8l6.2-4.6c1.8-1.3,2.1-3.8,0.8-5.5l-0.7-0.9
	C137.4,111.5,134.9,111.1,133.1,112.4z"/>
</svg>
