<?xml version="1.0" encoding="iso-8859-1"?>
<!-- Generator: Adobe Illustrator 18.0.0, SVG Export Plug-In . SVG Version: 6.00 Build 0)  -->
<!DOCTYPE svg PUBLIC "-//W3C//DTD SVG 1.1//EN" "http://www.w3.org/Graphics/SVG/1.1/DTD/svg11.dtd">
<svg version="1.1" id="Layer_1" xmlns="http://www.w3.org/2000/svg" xmlns:xlink="http://www.w3.org/1999/xlink" x="0px" y="0px"
	 width="429.3px" height="87.6px" viewBox="0 0 429.3 87.6" enable-background="new 0 0 429.3 87.6" xml:space="preserve">
<path fill="#A9A7BA" d="M235.9,28.5c-7.2,2.4-13.5,4.4-15.2,12.2c-0.4,1.9-1.3,3.2-4,2.7c1.8-6.1,4.8-11.4,7.9-16.6
	c3-5.2,5.9-10.6,9-16.2c5.5,3.1,4.4,8.5,5.5,13.4c5.3-2.2,10.9-2.2,15.2-6.3c1.9-1.9,4.5-3.1,7-4.3c1.1-0.5,2.6-0.5,3.8-0.4
	c2.4,0.2,3.4,1.8,2.4,4c-0.8,1.7-2.1,3.1-3.3,4.5c-1.4,1.5-2.9,2.8-4.8,4.5c1.7,0.7,3.2,1.2,4.5,1.9c2.4,1.3,3,3.2,1.5,5.4
	c-3.7,5.1-9,8.1-14.6,10.6c-0.6,0.3-1.5-0.3-2.5-0.5c0.3-2.1,1.3-2.7,3.1-3.1c5.2-1.1,8.7-4.5,11.9-8.6c-3.4-2.4-7.2-2.8-9.6-1
	c-0.9,0.7-1.4,2.1-1.8,3.2c-0.7,1.9-0.6,1.9-3.3,2.8c-2.8-3.8-1.8-7.9-0.5-12.2c-3.3-0.6-5.8,1-8.2,2.3c-0.7,0.4-0.9,2-1.1,3.1
	c-0.5,3.1-0.8,6.3-1.5,9.4c-0.3,1.4-1.2,2.6-1.9,3.9c-0.4-0.1-0.7-0.2-1.1-0.3C234.8,38.5,235.3,33.9,235.9,28.5z M226.7,29.2
	c2.8-1.2,5.3-2.1,7.8-3.3c0.4-0.2,0.9-0.9,0.9-1.4c0.1-2.9,0.5-6-1.7-8.5C230.6,19.6,227.7,24.9,226.7,29.2z M264.4,15.8
	c-4.2-0.3-7.1,1.8-9.8,4.4c-1.8,1.7-1.6,3.7-0.5,5.8C260.4,22.9,263.7,19.8,264.4,15.8z"/>
<path fill="#A9A7BA" d="M179,24.9c5.9,0.4,10.4-4.5,16.4-2.9c-0.9,0.5-1.8,1-2.8,1.4c-5.3,2.3-10.6,4.6-15.9,7
	c-1.9,0.8-3.2,3.5-2.7,5.4c0.2,0.8,1.2,1.7,1.9,1.9c1,0.3,2.4,0.2,3.4-0.2c4.7-1.9,9.2-4.2,11.3-9.7c2,1.2,1.7,2.7,0.7,4
	c-3.9,4.5-8.5,8-14.4,9.1c-4.3,0.8-6.6-1.7-6.2-6c0.1-1.3,0.4-2.5,0.7-4.5c-2,0.9-3.4,1.3-4.7,2.1c-5.9,3.6-11.8,7.3-17.7,10.9
	c-2.3,1.4-4.4,3.4-7.2,3.6c-1.6-1.8-0.5-3.2,0.2-4.5c2.8-5.4,5.9-10.7,8.6-16.1c1.7-3.3,2.9-6.9,4.4-10.3c0.3-0.8,0.8-1.5,1.4-2.1
	c0.3-0.3,1.3-0.4,1.6-0.1c0.5,0.4,0.9,1.2,0.9,1.7c-0.1,0.8-0.6,1.6-1,2.3c-3.5,6.5-6.9,13-10.4,19.6c-0.6,1.2-1.1,2.5-1.7,3.8
	c0.2,0.2,0.5,0.4,0.7,0.6c1.8-1,3.7-2,5.5-3.1c5.1-3.1,10.2-6.1,15.3-9.2c0.7-0.4,1.5-1.1,2.3-1.2c2.7-0.3,4.9-0.8,4-4.4
	c-0.1-0.4,0.4-1.1,0.8-1.5c3-3.7,6.6-6.5,10.8-8.6c1.7-0.8,2.7-0.4,2.9,1.9C182.6,16.5,182,21.7,179,24.9z"/>
<path fill="#A9A7BA" d="M310.6,18.8c-1.2,1.4-2.4,2.8-3.6,4.1c-3.1,3.2-6.2,6.5-9.4,9.6c-0.8,0.8-1.8,1.5-2.9,1.9
	c-1.9,0.8-3.1,0-3.1-2.2c0-1.3,0.3-2.6,0.7-3.8c1-3.3,2.2-6.6,3.3-9.9c0.4-1.2,1-2.3,2.5-1.7c1.6,0.6,1.6,1.9,1.1,3.2
	c-0.8,1.9-1.9,3.6-2.7,5.5c-0.6,1.5-1,3.2-1.5,4.8c0.3,0.2,0.6,0.4,0.9,0.6c1.7-1.5,3.6-2.8,5-4.5c3.3-3.8,6.5-7.8,9.7-11.7
	c0.6-0.7,1-1.5,1.6-2c0.6-0.5,1.6-1,2.2-0.8c0.6,0.2,1,1.3,1.2,2c0.2,0.7,0,1.4,0,2.7c9.8-0.1,19.4-2.9,29.1-2.4
	c0.1,0.3,0.2,0.7,0.3,1c-0.9,0.4-1.8,1-2.8,1.1c-3.2,0.4-6.3,0.8-9.5,1c-2.3,0.2-3.2,1.3-3.4,3.6c-0.2,2.7-0.8,5.4-1.4,8.1
	c-0.4,1.5-1.2,3-3.9,2.2c1.2-4,2.7-7.9,1.1-12.1c-3.9-1.1-7,1.2-11,2.2c-0.9,4.8-1.8,9.8-2.7,14.8c-0.2,1.3-0.2,2.6-0.7,3.8
	c-0.2,0.6-1.2,0.9-1.9,1.4c-0.3-0.7-1-1.5-0.9-2.1c0.8-5.2,1.7-10.3,2.7-15.4c0.3-1.5,0.6-3,0.9-4.5C311.2,19.2,310.9,19,310.6,18.8
	z"/>
<path fill="#A9A7BA" d="M32.5,47.7c1-7,2-13.5,3.1-20.6c-4.7,0.4-8.7,1.4-12.4,3.7c-2.3,1.4-4.8,2.6-7.2,3.9
	c-0.7,0.4-1.6,0.8-2.1,1.5c-2.2,3.3-5.5,6-6.5,10.2c-0.4,1.9-0.7,1.8-3.7,3c0.1-1.1-0.2-2.2,0.2-2.8c1.3-2.2,2.8-4.4,4.3-6.5
	c7.6-10.5,16.5-19.7,25.6-28.8c1.7-1.7,3.2-3.7,4.5-5.7c0.8-1.2,1.4-2.8,3.2-2.1c2,0.7,1.7,2.3,1.3,4c-2.1,9.3-4.2,18.6-6.2,27.9
	c-0.6,2.8-0.6,5.8-0.7,8.6C36,45.8,35.5,47.1,32.5,47.7z M38.8,10C34,13.1,23.2,24.2,21.6,27.5c4.3-1.1,8.6-2.1,12.9-3.1
	c1.7-0.4,2.3-1.6,2.6-3.1C37.7,17.7,38.2,14.2,38.8,10z"/>
<path fill="#A9A7BA" d="M382.3,28.7c-1-5.7,2.1-10.9,2-17.3c-1.3,1.2-2.1,1.8-2.6,2.5c-4.3,6.3-9.5,12.1-11.6,19.7
	c-0.5,1.7-1.6,2.7-4,1.1c1.2-2.4,2.2-5,3.7-7.2c4.3-6.4,8.8-12.6,13.2-18.9c0.5-0.7,1-1.4,1.7-2c1.3-1,2.7-0.5,2.9,1.1
	c0.2,1.2,0,2.6-0.2,3.9c-0.6,3.7-1.2,7.3-2,11.5c3.1-1.2,4.3-3.5,5.9-5.2c3.2-3.3,6.5-6.6,9.8-9.9c0.6-0.6,1.3-1.2,2.1-1.6
	c2.2-1.2,3.8-0.4,3.8,2c0,2-0.3,4.1-1,6c-2.3,7-4.7,14-7.1,21c-0.3,0.9-1.2,1.6-2,2.5c-1.8-2-1-3.5-0.5-4.9c2-5.6,4-11.2,6-16.8
	c0.7-2,1.7-4,0.7-6.7c-4.3,2.8-7.5,6.2-10.5,9.9C387,26.9,385.5,28.2,382.3,28.7z"/>
<path fill="#A9A7BA" d="M101.1,15c5,1.1,13.8,0.2,18.2-1.7c0.4-0.2,0.8-0.5,1.2-0.4c8.3,0.5,16.3-2.3,24.5-2.8
	c1.8-0.1,3.6-0.2,5.4-0.3c0.1,0.4,0.2,0.7,0.3,1.1c-1.2,0.4-2.5,1-3.7,1.2c-6,1-12,1.8-18.1,2.7c-1.4,0.2-2.8,0.6-4.3,0.8
	c-2,0.2-3,1.4-3.6,3.2c-1.8,5.5-3.7,11-5.7,16.4c-0.3,0.8-1,1.5-1.4,2.2c-1.9-0.9-1.5-2-1.1-3.2c1.3-3.7,2.6-7.4,3.9-11.1
	c0.5-1.6,1-3.3,1.5-5.2c-5-1.2-9.5,2.7-14.6-0.2c-2.2,5.8-4.3,11.4-6.3,16.9c-0.2,0.5-0.1,1.3-0.4,1.7c-0.6,0.7-1.4,1.2-2,1.8
	c-0.3-0.8-1.1-1.7-1-2.5c0.2-1.4,0.9-2.7,1.3-4.1c1.5-4.7,3-9.3,4.6-14C100.2,16.7,100.7,15.9,101.1,15z"/>
<path fill="#A9A7BA" d="M426.3,10.6c-2.9,2.3-9,0.4-8.8,6.8c3.9,0.9,7.3-2.4,11.8-0.9c-1.1,0.7-1.7,1.4-2.4,1.6
	c-3.3,0.7-6.2,2.2-9,4.1c-3.4,2.3-4.5,4.3-3.7,9.3c5.6-1.3,9.7-4.8,13.2-9.3c0.7,2.7,0.8,2.8-0.5,4.2c-3.3,3.6-7.3,6.2-11.8,7.9
	c-3.8,1.4-5.7-0.1-4.8-4.1c0.7-3.4,1.8-6.7,2.7-10.1c0.3-1,0.3-1.9,0.5-3.1c-1.9,0-2.1,1.4-2.7,2.5c-0.7,1.2-1.8,1.5-3,0.8
	c-1.3-0.8-0.9-2.1-0.2-3c0.8-1,1.9-1.8,2.9-2.6c1-0.8,2.2-1.4,3-2.4c1-1.3,2.1-1.7,3.7-1.7c1.6,0,3.1-0.5,4.7-0.8
	C423.3,9.4,424.9,8.8,426.3,10.6z"/>
<path fill="#A9A7BA" d="M200.8,74.7c-9.1,0-18.2-0.1-27.3,0C150,75,126.5,75.2,103,75.5c-9.9,0.1-19.7,0.5-29.5,0.9
	c-2.1,0.1-4.1,0.7-6.1,1.3c-2.5,0.8-5.5-0.5-8.3-0.9c-0.3-0.1-0.8-0.9-0.7-1.4c0.1-0.4,0.6-0.9,1.1-1.1c0.5-0.2,1.1-0.1,1.7-0.1
	c19,0,37.9,0.1,56.9,0.1c20.1,0,40.3,0,60.4,0c7.4,0,14.8,0,22.1,0C200.6,74.4,200.7,74.5,200.8,74.7z"/>
<path fill="#A9A7BA" d="M71.2,40.3c1.2-1,2.3-2.1,3.5-3c3.6-2.7,7.2-5.3,10.9-7.9c0.9-0.7,2-1.3,3.1-1.4c1.2-0.2,2.8-0.3,3.5,0.4
	c0.6,0.5,0.1,2.2,0.1,4.2c-3.6-2.5-6-0.9-8.5,0.6C78.2,36.7,73.6,41.4,69,46c-1.1,1.1-2.2,3.4-4.1,2c-1.5-1.2,0.5-2.5,1-3.7
	c3.1-7.5,6.3-14.9,9.4-22.5c0.7-1.7,0.8-3.7,1.1-5.5c0.2-1.3,0.6-2.4,2.1-2.1c1.5,0.3,1.6,1.6,1.1,2.8c-1.8,4.7-3.7,9.4-5.6,14.1
	c-1.2,2.9-2.3,5.8-3.5,8.7C70.7,40,71,40.2,71.2,40.3z"/>
<path fill="#A9A7BA" d="M289.1,18.1c-0.2,1.3-0.2,2.8-0.8,4c-3,6.3-7.7,11.1-13.3,15.1c-0.5,0.3-1,0.8-1.5,0.8
	c-1.1,0-2.4,0.1-3.1-0.4c-0.5-0.4-0.5-1.9-0.2-2.8c0.2-0.9,0.9-1.8,1.5-2.6c4-5,8.1-9.8,14.1-12.5c0.9-0.4,1.6-1.2,2.4-1.8
	C288.4,17.9,288.7,18,289.1,18.1z M283.2,24.9c-4.7,2.1-8.2,5.9-8.7,9.5C278.4,31.8,281.4,29,283.2,24.9z"/>
<path fill="#A9A7BA" d="M343.4,77c19.7,0.4,39.4,1.3,58.9,4.3c0.5,0.1,0.9,0.9,2.1,2.1c-5,0.3-8.6-1.8-12.4-2.2
	c-4-0.4-8.1-0.9-12.1-1.3c-4.2-0.4-8.4-0.8-12.5-1.1c-4-0.3-8.1-0.6-12.1-0.9C351.3,77.6,347.4,77.3,343.4,77z"/>
<path fill="#A9A7BA" d="M127,37.9c-1.5-1.4-1-3-0.6-4.5c1.5-5.3,3.1-10.5,4.8-15.8c0.2-0.7,0.7-1.3,1.2-1.7c0.4-0.3,1.2-0.4,1.6-0.2
	c0.4,0.2,0.7,0.8,0.9,1.3c0.1,0.4,0,0.9-0.2,1.3c-2.2,6.3-4.3,12.6-6.5,18.8C128,37.5,127.5,37.6,127,37.9z"/>
<path fill="#A9A7BA" d="M338.6,76.7c-10.6-0.5-21.2-0.9-31.8-1.4c0-0.1,0-0.3,0-0.4c10.6,0.4,21.2,0.8,31.9,1.1
	C338.6,76.2,338.6,76.5,338.6,76.7z"/>
<path fill="#A9A7BA" d="M269.5,74.4c7.8,0,15.6,0,23.4,0c0,0.1,0,0.2,0,0.3c-7.9,0-15.7,0-23.6,0C269.4,74.5,269.5,74.4,269.5,74.4z
	"/>
<path fill="#A9A7BA" d="M263.4,74.5c-1.9,0-3.8,0-5.8,0c0-0.2,0-0.3,0-0.5c1.9,0.1,3.8,0.2,5.7,0.3
	C263.4,74.4,263.4,74.5,263.4,74.5z"/>
<path fill="#A9A7BA" d="M222.3,74.5c-0.9,0-1.9,0-3.4,0c1.5-0.2,2.4-0.4,3.3-0.5C222.2,74.1,222.2,74.3,222.3,74.5z"/>
<path fill="#A9A7BA" d="M214.6,74.5c-0.5,0-1,0.1-1.5,0.1c-0.5,0-1,0-2-0.1c1-0.2,1.5-0.3,2-0.4c0.5-0.1,1-0.1,1.4-0.2
	C214.6,74.1,214.6,74.3,214.6,74.5z"/>
<path fill="#A9A7BA" d="M251.6,74.3c0.5,0,1,0,1.5,0c0,0.1-0.1,0.2-0.1,0.3c-0.5,0-0.9,0-1.4,0C251.6,74.5,251.6,74.4,251.6,74.3z"
	/>
</svg>
