<?xml version="1.0" encoding="utf-8"?>
<!-- Generator: Adobe Illustrator 18.0.0, SVG Export Plug-In . SVG Version: 6.00 Build 0)  -->
<!DOCTYPE svg PUBLIC "-//W3C//DTD SVG 1.1//EN" "http://www.w3.org/Graphics/SVG/1.1/DTD/svg11.dtd">
<svg version="1.1" id="Layer_1" xmlns="http://www.w3.org/2000/svg" xmlns:xlink="http://www.w3.org/1999/xlink" x="0px" y="0px"
	 width="143.5px" height="168px" viewBox="0 0 143.5 168" enable-background="new 0 0 143.5 168" xml:space="preserve">
<path fill="none" stroke="#2A2A2A" stroke-width="3" stroke-miterlimit="10" d="M94.1,78.7c0,25.4-20.6,45.9-45.9,45.9
	c-3.2,0-6.3-0.3-9.3-0.9c-7.5,6.8-13.3,10.8-28.4,14.8c-1.6,0.4,8.9-8.4,15.1-19.8c-13.9-7.9-23.3-22.8-23.3-40
	c0-25.4,20.6-45.9,45.9-45.9S94.1,53.4,94.1,78.7z"/>
<path fill="none" stroke="#2A2A2A" stroke-width="3" stroke-miterlimit="10" d="M25.6,118.7"/>
<path fill="none" stroke="#2A2A2A" stroke-width="3" stroke-miterlimit="10" d="M38.9,123.7"/>
<path fill="none" stroke="#2A2A2A" stroke-width="3" stroke-miterlimit="10" d="M77,94.4c0,17.9,14.5,32.4,32.4,32.4
	c2.2,0,4.4-0.2,6.6-0.7c5.3,4.8,9.4,7.6,20,10.4c1.2,0.3-6.3-5.9-10.7-13.9c9.8-5.6,16.4-16.1,16.4-28.2c0-17.9-14.5-32.4-32.4-32.4
	S77,76.5,77,94.4z"/>
<path fill="none" stroke="#2A2A2A" stroke-width="3" stroke-miterlimit="10" d="M126.6,135.6"/>
<line fill="none" stroke="#2A2A2A" stroke-width="3" stroke-miterlimit="10" x1="29.6" y1="73.1" x2="68" y2="73.1"/>
<line fill="none" stroke="#2A2A2A" stroke-width="3" stroke-miterlimit="10" x1="29.6" y1="84.3" x2="68" y2="84.3"/>
<line fill="none" stroke="#2A2A2A" stroke-width="3" stroke-miterlimit="10" x1="96.2" y1="93.2" x2="101.9" y2="93.2"/>
<line fill="none" stroke="#2A2A2A" stroke-width="3" stroke-miterlimit="10" x1="106.6" y1="93.2" x2="112.3" y2="93.2"/>
<line fill="none" stroke="#2A2A2A" stroke-width="3" stroke-miterlimit="10" x1="116.9" y1="93.2" x2="122.7" y2="93.2"/>
</svg>
