<?xml version="1.0" encoding="utf-8"?>
<!-- Generator: Adobe Illustrator 18.0.0, SVG Export Plug-In . SVG Version: 6.00 Build 0)  -->
<!DOCTYPE svg PUBLIC "-//W3C//DTD SVG 1.1//EN" "http://www.w3.org/Graphics/SVG/1.1/DTD/svg11.dtd">
<svg version="1.1" id="Layer_1" xmlns="http://www.w3.org/2000/svg" xmlns:xlink="http://www.w3.org/1999/xlink" x="0px" y="0px"
	 width="143.5px" height="168px" viewBox="0 0 143.5 168" enable-background="new 0 0 143.5 168" xml:space="preserve">
<path fill="none" stroke="#2A2A2A" stroke-width="3" stroke-miterlimit="10" d="M42.9,105.3c0-2.2,1.8-3.9,4-3.9
	c1.4,0,2.7-0.6,3.3-1.8c1.6-3-0.5-6-3.3-6c-1.5,0-2.9-0.8-3.5-2.2c-1.2-2.9,0.8-5.6,3.5-5.6c1.5,0,2.9-0.8,3.5-2.2
	c1.3-2.9-0.8-5.6-3.5-5.6"/>
<path fill="none" stroke="#2A2A2A" stroke-width="3" stroke-miterlimit="10" d="M28.3,105.3c0-2.2,1.8-3.9,4-3.9
	c1.4,0,2.7-0.6,3.3-1.8c1.6-3-0.5-6-3.3-6c-1.5,0-2.9-0.8-3.5-2.2c-1.2-2.9,0.8-5.6,3.5-5.6c1.5,0,2.9-0.8,3.5-2.2
	c1.3-2.9-0.8-5.6-3.5-5.6"/>
<path fill="none" stroke="#2A2A2A" stroke-width="3" stroke-miterlimit="10" d="M137.5,76v33.3c0,7-5.7,12.8-12.8,12.8h-1.3
	c-2.4,0-4.7-0.7-6.7-1.9v15.7c0,2.3-1.9,4.3-4.3,4.3h-44c-2.3,0-4.3-1.9-4.3-4.3v-78h52.5v7.2c1.9-1.2,4.2-1.9,6.7-1.9h1.3
	C131.8,63.2,137.5,68.9,137.5,76z"/>
<path fill="none" stroke="#2A2A2A" stroke-width="3" stroke-miterlimit="10" d="M124.1,112.5h-0.8c-3.5,0-6.4-2.9-6.4-6.4V78.3
	c0-3.5,2.9-6.4,6.4-6.4h0.8c3.5,0,6.4,2.9,6.4,6.4v27.9C130.4,109.7,127.6,112.5,124.1,112.5z"/>
<path fill="none" stroke="#2A2A2A" stroke-width="3" stroke-miterlimit="10" d="M119.4,48.5c0,5.3-4.2,9.5-9.4,9.6v74.3
	c0,0.6-0.5,1.1-1.1,1.1H72.1c-0.6,0-1.1-0.5-1.1-1.1V58.1c-0.1,0-0.1,0-0.2,0c-4,0-7.2-2.2-7.2-6.2c0-4,3.2-7.2,7.2-7.2
	c0.1,0,0.1,0,0.2,0c-0.7-1.6-1-3.3-1-5.1c0-7.2,5.9-13.1,13.1-13.1c6.4,0,11.8,4.7,12.9,10.8c0.1,0,0.3,4.2,0.4,4.2
	c2,0,3.9,0.6,5.4,1.7c1.7-2.6,4.7-4.4,8-4.4C115.1,38.9,119.4,43.2,119.4,48.5z"/>
<circle fill="none" stroke="#2A2A2A" stroke-width="3" stroke-miterlimit="10" cx="84.9" cy="83.4" r="3.4"/>
<circle fill="none" stroke="#2A2A2A" stroke-width="3" stroke-miterlimit="10" cx="91.8" cy="69" r="2.3"/>
<path fill="none" stroke="#2A2A2A" stroke-width="3" stroke-miterlimit="10" d="M60.9,106.8"/>
<path fill="none" stroke="#2A2A2A" stroke-width="3" stroke-miterlimit="10" d="M4,125.5c0,6.6,5.4,12,12,12c1.8,0,3.5-0.4,5.1-1.1
	c0.8,2.3,3.1,4,5.7,4h23.3c3.3,0,6-2.7,6-6v-23.8H20.8v3.8c-1.5-0.6-3.1-1-4.7-1C9.4,113.4,4,118.8,4,125.5z"/>
<circle fill="none" stroke="#2A2A2A" stroke-width="3" stroke-miterlimit="10" cx="15.9" cy="125.4" r="5.2"/>
<g>
	<polygon fill="#FFFFFF" stroke="#2A2A2A" stroke-width="3" stroke-miterlimit="10" points="72.8,150.3 53.6,150.3 50.5,119.4 
		76,119.4 	"/>
	<line fill="#FFFFFF" stroke="#2A2A2A" stroke-width="3" stroke-miterlimit="10" x1="51.5" y1="130" x2="74.9" y2="130"/>
</g>
</svg>
