<?xml version="1.0" encoding="iso-8859-1"?>
<!-- Generator: Adobe Illustrator 18.0.0, SVG Export Plug-In . SVG Version: 6.00 Build 0)  -->
<!DOCTYPE svg PUBLIC "-//W3C//DTD SVG 1.1//EN" "http://www.w3.org/Graphics/SVG/1.1/DTD/svg11.dtd">
<svg version="1.1" id="Layer_2" xmlns="http://www.w3.org/2000/svg" xmlns:xlink="http://www.w3.org/1999/xlink" x="0px" y="0px"
	 width="172.7px" height="189.1px" viewBox="0 0 172.7 189.1" enable-background="new 0 0 172.7 189.1" xml:space="preserve">
<path fill="none" stroke="#000000" stroke-width="9" stroke-linecap="round" stroke-miterlimit="10" d="M72.7,180.2
	c-36.6-10.3-63.5-44-63.5-84C9.2,48,48.3,9,96.4,9c27.4,0,51.8,12.6,67.8,32.3"/>
<g>
	<path fill="none" stroke="#000000" stroke-width="4.1407" stroke-miterlimit="10" d="M85.9,69.3l-4-4c-6.4-6.4-16.1-7.3-21.5-1.9
		L57.8,66c-5.4,5.4-4.6,15.1,1.9,21.5l59.8,59.8c6.4,6.4,16.1,7.3,21.5,1.9l2.6-2.6c5.4-5.4,4.6-15.1-1.9-21.5L85.9,69.3"/>
	<path fill="none" stroke="#000000" stroke-width="3.1055" stroke-linecap="round" stroke-miterlimit="10" d="M89.1,64.2L86,61.4
		c-8.4-8.2-19.8-6.4-28.4,4.9"/>
	<path fill="none" stroke="#000000" stroke-width="3.1055" stroke-linecap="round" stroke-miterlimit="10" d="M95.5,68.4"/>
	<path fill="none" stroke="#000000" stroke-width="3.1055" stroke-linecap="round" stroke-miterlimit="10" d="M141.6,148.6
		c11.5-10,13.4-19.3,3.7-27.9l-44.9-44.9"/>
	<path fill="none" stroke="#000000" stroke-width="3.1055" stroke-linecap="round" stroke-miterlimit="10" d="M81.9,64.2h79.5
		c0,0-16.7,23.5-71.8,8.9"/>
	
		<line fill="none" stroke="#000000" stroke-width="3.1055" stroke-linecap="round" stroke-miterlimit="10" x1="120.4" y1="69.5" x2="133.3" y2="69.5"/>
	<g>
		<line fill="none" stroke="#000000" stroke-width="4.1407" stroke-miterlimit="10" x1="77.2" y1="82.6" x2="86.7" y2="92"/>
		<line fill="none" stroke="#000000" stroke-width="4.1407" stroke-miterlimit="10" x1="86.7" y1="82.6" x2="77.2" y2="92"/>
	</g>
</g>
<path fill="none" stroke="#000000" stroke-width="3.1055" stroke-linecap="round" stroke-miterlimit="10" d="M76,65.1"/>
</svg>
