<?xml version="1.0" encoding="utf-8"?>
<!-- Generator: Adobe Illustrator 18.1.1, SVG Export Plug-In . SVG Version: 6.00 Build 0)  -->
<!DOCTYPE svg PUBLIC "-//W3C//DTD SVG 1.1//EN" "http://www.w3.org/Graphics/SVG/1.1/DTD/svg11.dtd">
<svg version="1.1" id="Layer_2" xmlns="http://www.w3.org/2000/svg" xmlns:xlink="http://www.w3.org/1999/xlink" x="0px" y="0px"
	 width="172.7px" height="189.1px" viewBox="-219 302.9 172.7 189.1" enable-background="new -219 302.9 172.7 189.1"
	 xml:space="preserve">
<path fill="none" stroke="#F3F3F7" stroke-width="9" stroke-linecap="round" stroke-miterlimit="10" d="M-146.3,483.1
	c-36.6-10.3-63.5-44-63.5-84c0-48.2,39.1-87.2,87.2-87.2c27.4,0,51.8,12.6,67.8,32.3"/>
<path fill="none" stroke="#000000" stroke-width="4.1407" stroke-linecap="round" stroke-miterlimit="10" d="M-95.6,451.2h-65.7
	c-2.3,0-4.1-1.9-4.1-4.1v-98c0-2.3,1.9-4.1,4.1-4.1h74.9c2.3,0,4.1,1.9,4.1,4.1v54.2"/>
<polygon fill="none" stroke="#000000" stroke-width="3.1055" stroke-linecap="round" stroke-miterlimit="10" points="-88.5,366.8 
	-158.9,366.8 -158.9,359.6 -99.2,359.6 -88.5,359.6 "/>
<circle cx="-158.9" cy="352.5" r="1.4"/>
<circle cx="-154.2" cy="352.5" r="1.4"/>
<circle cx="-149.5" cy="352.5" r="1.4"/>
<polyline fill="none" stroke="#000000" stroke-width="3.1055" stroke-linecap="round" stroke-miterlimit="10" points="-96.1,444.2 
	-158.9,444.2 -158.9,375.7 -88.6,375.7 -88.6,403 "/>
<path fill="none" stroke="#000000" stroke-width="4.1407" stroke-linecap="round" stroke-miterlimit="10" d="M-95.1,443.7v-36.2
	c0-2.3,1.9-4.1,4.1-4.1h29.1c2.3,0,4.1,1.9,4.1,4.1v55.3c0,2.3-1.9,4.1-4.1,4.1H-91c-2.3,0-4.1-1.9-4.1-4.1V443.7"/>
<line fill="none" stroke="#000000" stroke-width="3.1055" stroke-linecap="round" stroke-miterlimit="10" x1="-81.9" y1="411.4" x2="-71" y2="411.4"/>
<path fill="none" stroke="#000000" stroke-width="4.1407" stroke-linecap="round" stroke-miterlimit="10" d="M-97.8,359.6"/>
<line fill="none" stroke="#000000" stroke-width="3.1055" stroke-miterlimit="10" x1="-99.3" y1="359.6" x2="-99.3" y2="366.8"/>
</svg>
