<?xml version="1.0" encoding="iso-8859-1"?>
<!-- Generator: Adobe Illustrator 18.0.0, SVG Export Plug-In . SVG Version: 6.00 Build 0)  -->
<!DOCTYPE svg PUBLIC "-//W3C//DTD SVG 1.1//EN" "http://www.w3.org/Graphics/SVG/1.1/DTD/svg11.dtd">
<svg version="1.1" id="Layer_2" xmlns="http://www.w3.org/2000/svg" xmlns:xlink="http://www.w3.org/1999/xlink" x="0px" y="0px"
	 width="172.7px" height="189.1px" viewBox="0 0 172.7 189.1" enable-background="new 0 0 172.7 189.1" xml:space="preserve">
<path fill="none" stroke="#000000" stroke-width="9" stroke-linecap="round" stroke-miterlimit="10" d="M72.7,180.2
	c-36.6-10.3-63.5-44-63.5-84C9.2,48,48.3,9,96.4,9c27.4,0,51.8,12.6,67.8,32.3"/>
<path fill="none" stroke="#000000" stroke-width="4.1407" stroke-linecap="round" stroke-miterlimit="10" d="M123.4,148.3H57.7
	c-2.3,0-4.1-1.9-4.1-4.1V46.2c0-2.3,1.9-4.1,4.1-4.1h74.9c2.3,0,4.1,1.9,4.1,4.1v54.2"/>
<polygon fill="none" stroke="#000000" stroke-width="3.1055" stroke-linecap="round" stroke-miterlimit="10" points="130.5,63.9 
	60.1,63.9 60.1,56.7 119.8,56.7 130.5,56.7 "/>
<circle cx="60.1" cy="49.6" r="1.4"/>
<circle cx="64.8" cy="49.6" r="1.4"/>
<circle cx="69.5" cy="49.6" r="1.4"/>
<polyline fill="none" stroke="#000000" stroke-width="3.1055" stroke-linecap="round" stroke-miterlimit="10" points="122.9,141.3 
	60.1,141.3 60.1,72.8 130.4,72.8 130.4,100.1 "/>
<path fill="none" stroke="#000000" stroke-width="4.1407" stroke-linecap="round" stroke-miterlimit="10" d="M123.9,140.8v-36.2
	c0-2.3,1.9-4.1,4.1-4.1h29.1c2.3,0,4.1,1.9,4.1,4.1v55.3c0,2.3-1.9,4.1-4.1,4.1H128c-2.3,0-4.1-1.9-4.1-4.1V140.8"/>
<line fill="none" stroke="#000000" stroke-width="3.1055" stroke-linecap="round" stroke-miterlimit="10" x1="137.1" y1="108.5" x2="148" y2="108.5"/>
<path fill="none" stroke="#000000" stroke-width="4.1407" stroke-linecap="round" stroke-miterlimit="10" d="M121.2,56.7"/>
<line fill="none" stroke="#000000" stroke-width="3.1055" stroke-miterlimit="10" x1="119.7" y1="56.7" x2="119.7" y2="63.9"/>
</svg>
